<?xml version="1.0" encoding="UTF-8" standalone="no"?>
<svg
   xmlns:ns="http://www.w3.org/TR/REC-rdf-syntax/"
   xmlns:dc="http://purl.org/dc/elements/1.1/"
   xmlns:cc="http://creativecommons.org/ns#"
   xmlns:rdf="http://www.w3.org/1999/02/22-rdf-syntax-ns#"
   xmlns:svg="http://www.w3.org/2000/svg"
   xmlns="http://www.w3.org/2000/svg"
   xmlns:xlink="http://www.w3.org/1999/xlink"
   id="svg2"
   height="718.13495"
   width="487.31735"
   version="1.1">
  <defs
     id="defs19" />
  <!-- IMAGE UNDER PUBLIC DOMAIN
		This work is to be released under public domain according to
		§ 5 Abs. 1 of the German Copyright law, official works -->
  <title
     id="title4">Coat of Arms of Bad Lippspringe, Germany</title>
  <desc
     id="desc6">Scalable Vector Graphics Version</desc>
  <metadata
     id="metadata8">
    <ns:RDF>
      <ns:Description
         dc:language="en-IE"
         dc:date="2010-07-14"
         dc:description="Vectorized version"
         dc:format="image/svg+xml"
         dc:source="http://commons.wikimedia.org"
         dc:title="CoA Bad Lippspringe"
         dc:subject="SVG CoA of Bad Lippspringe"
         dc:rights="Public Domain"
         dc:creator="Harald Pfeiffer" />
    </ns:RDF>
    <rdf:RDF>
      <cc:Work
         rdf:about="">
        <dc:format>image/svg+xml</dc:format>
        <dc:type
           rdf:resource="http://purl.org/dc/dcmitype/StillImage" />
        <dc:title>Coat of Arms of Bad Lippspringe, Germany</dc:title>
      </cc:Work>
    </rdf:RDF>
  </metadata>
  <rect
     y="550.88416"
     x="101.65868"
     height="55"
     width="284"
     id="filler"
     style="fill:#cd2f28;fill-opacity:1;stroke:none" />
  <path
     d="m 383.65868,602.88417 c 29,-35 70,-23 70,-122 0,-57 -2.5,-79 21,-109 -47,-44 -72.5,-127 1,-186 -48,-83 -155,-73.5 -232,-9 -77,-64.5 -184.000002,-74 -232.000002,9 73.5,59 48,142 1,186 23.5,30 21,52 21,109 0,99 41,87 70.000002,122 m 257,-48 c 39,14 40,69 -45,96 -42,13 -57,24 -72,49.5 -15,-25.5 -30,-36.5 -72,-49.5 -85.000002,-27 -84.000002,-82 -45,-96"
     style="fill:#cd2f28;fill-opacity:1;stroke:#000000;stroke-width:18;stroke-linecap:round;stroke-linejoin:miter;stroke-miterlimit:4;stroke-dasharray:none;stroke-opacity:1"
     id="shield" />
  <g
     transform="translate(-6.3413224,30.884174)"
     style="fill:#ffffff;stroke:#000000"
     id="crosses">
    <path
       style="fill:#ffffff;stroke:#000000;stroke-width:14;stroke-linecap:butt;stroke-linejoin:miter;stroke-miterlimit:4;stroke-dasharray:none;stroke-opacity:1"
       d="m 327,236 -35,0 0,41 35,0 0,102 40,0 0,-102 35,0 0,-41 -35,0 0,-44 -40,0 0,44 z"
       id="cross-top" />
    <path
       id="cross-bottom"
       d="m 250,587 20,0 0,-102 35,0 0,-41 -35,0 0,-44 -20,0"
       style="fill:#ffffff;stroke:#000000;stroke-width:14;stroke-linecap:butt;stroke-linejoin:miter;stroke-miterlimit:4;stroke-dasharray:none;stroke-opacity:1" />
  </g>
  <use
     height="700"
     width="500"
     transform="matrix(-1,0,0,1,488.31736,-4.2857141e-7)"
     id="crosses-mirror"
     xlink:href="#crosses"
     y="0"
     x="0" />
  <flowRoot
     transform="translate(556.79732,-114.8817)"
     style="font-style:normal;font-variant:normal;font-weight:normal;font-stretch:normal;font-size:40px;line-height:125%;font-family:FontAwesome;-inkscape-font-specification:FontAwesome;letter-spacing:0px;word-spacing:0px;fill:#000000;fill-opacity:1;stroke:none;stroke-width:1px;stroke-linecap:butt;stroke-linejoin:miter;stroke-opacity:1"
     id="flowRoot4147"
     xml:space="preserve"><flowRegion
       id="flowRegion4149"><rect
         y="63.454086"
         x="-416.3241"
         height="314.6026"
         width="406.88602"
         id="rect4151" /></flowRegion><flowPara
       style="font-size:180px"
       id="flowPara4153"></flowPara></flowRoot></svg>
